<?xml version="1.0" standalone="no"?>
<!DOCTYPE svg PUBLIC "-//W3C//DTD SVG 20010904//EN"
 "http://www.w3.org/TR/2001/REC-SVG-20010904/DTD/svg10.dtd">
<svg version="1.0" xmlns="http://www.w3.org/2000/svg"
 width="8333.000000pt" height="2900.000000pt" viewBox="0 0 8333.000000 2900.000000"
 preserveAspectRatio="xMidYMid meet">
<metadata>
Created by potrace 1.16, written by Peter Selinger 2001-2019
</metadata>
<g transform="translate(0.000000,2900.000000) scale(0.100000,-0.100000)"
fill="#000000" stroke="none">
<path d="M11305 27179 c-2150 -126 -4169 -923 -5835 -2303 -255 -211 -408
-353 -691 -635 -416 -417 -710 -758 -1029 -1196 -1046 -1437 -1693 -3120
-1869 -4865 -47 -464 -46 -361 -46 -3680 0 -3323 -1 -3229 46 -3685 214 -2067
1055 -3987 2447 -5583 189 -216 709 -736 927 -927 1729 -1508 3834 -2366 6100
-2485 147 -8 1139 -10 3305 -8 3396 4 3147 0 3685 63 2476 293 4754 1501 6401
3395 924 1063 1622 2316 2028 3644 269 878 405 1700 436 2635 13 391 13 5511
0 5902 -11 321 -29 574 -61 849 -204 1761 -873 3434 -1941 4855 -597 794
-1240 1437 -2028 2029 -1424 1069 -3080 1733 -4835 1941 -540 63 -279 59
-3745 61 -1735 1 -3218 -2 -3295 -7z m8155 -9832 l0 -4994 -2007 -1159 c-1103
-637 -2010 -1160 -2015 -1162 -4 -2 -8 2242 -8 4987 l0 4991 -2920 0 c-1606 0
-2920 3 -2920 8 0 4 901 528 2003 1164 l2002 1157 2933 0 2932 1 0 -4993z
m-2932 -8357 c2445 -1 2914 -3 2899 -14 -9 -7 -915 -532 -2011 -1165 l-1994
-1151 -2916 0 -2916 0 2 4997 3 4997 2005 1157 2005 1158 3 -4989 2 -4990
2918 0z"/>
<path d="M60601 20080 c-759 -50 -1457 -312 -2076 -779 -788 -594 -1329 -1509
-1469 -2481 -31 -214 -39 -368 -33 -669 8 -434 53 -724 168 -1077 290 -897
871 -1636 1669 -2121 471 -286 938 -451 1500 -529 179 -25 693 -30 890 -10
561 59 1052 215 1516 481 708 407 1246 993 1586 1730 187 405 292 791 339
1245 25 241 10 730 -29 961 l-8 44 -2199 2 -2200 3 -159 -628 c-87 -345 -161
-633 -164 -639 -3 -10 342 -13 1707 -13 1099 0 1711 -3 1711 -10 0 -20 -80
-250 -120 -345 -134 -318 -348 -626 -611 -880 -379 -365 -835 -585 -1399 -672
-143 -22 -547 -25 -685 -5 -477 69 -880 237 -1245 520 -106 83 -309 280 -405
393 -403 480 -614 1094 -592 1729 9 253 43 454 117 683 145 453 435 882 807
1192 378 316 781 500 1268 582 170 28 602 25 779 -5 436 -75 802 -233 1146
-493 63 -48 151 -121 196 -162 l81 -75 448 448 c246 246 446 452 444 458 -2 6
-53 57 -114 113 -578 534 -1263 864 -2015 973 -258 37 -604 52 -849 36z"/>
<path d="M38980 16230 l0 -3700 2490 0 2490 0 0 640 0 640 -1850 0 -1850 0 0
890 0 890 1536 0 c1458 0 1536 1 1532 18 -3 9 -74 297 -159 639 l-154 623
-1377 0 -1378 0 0 890 0 890 1850 0 1850 0 0 640 0 640 -2490 0 -2490 0 0
-3700z"/>
<path d="M47190 16230 l0 -3700 635 0 635 0 0 3060 0 3061 1038 -4 c1018 -3
1039 -4 1152 -25 476 -91 885 -290 1240 -602 306 -270 578 -719 696 -1150 66
-240 79 -342 79 -645 0 -237 -3 -285 -23 -398 -76 -423 -244 -793 -513 -1126
-317 -395 -783 -689 -1303 -821 -251 -64 -331 -70 -885 -70 l-486 0 -254 -620
c-139 -342 -255 -630 -258 -641 l-6 -21 809 5 c825 5 870 6 1119 47 443 71
912 247 1314 490 250 152 454 313 672 530 596 595 964 1337 1076 2175 22 167
25 703 5 870 -105 853 -468 1603 -1066 2200 -537 536 -1194 885 -1931 1025
-299 56 -198 54 -2042 57 l-1703 4 0 -3701z"/>
<path d="M67880 16230 l0 -3700 2490 0 2490 0 0 640 0 640 -1855 0 -1855 0 0
890 0 890 1535 0 c1201 0 1535 3 1535 12 0 7 -70 295 -156 640 l-156 628
-1379 0 -1379 0 0 890 0 890 1855 0 1855 0 0 640 0 640 -2490 0 -2490 0 0
-3700z"/>
<path d="M76080 16230 l0 -3700 635 0 635 0 0 3060 0 3061 858 -4 c832 -3 860
-4 942 -24 546 -136 935 -540 1051 -1093 39 -189 28 -434 -28 -630 -23 -78
-93 -245 -136 -322 -183 -328 -507 -569 -887 -660 -75 -18 -130 -21 -468 -27
l-384 -6 -259 -630 c-142 -346 -259 -633 -259 -637 0 -4 195 -9 432 -10 l433
-3 670 -1037 670 -1038 763 0 764 0 -24 38 c-12 20 -352 547 -755 1171 l-732
1135 112 61 c210 115 375 232 545 386 413 374 718 943 812 1514 73 443 31 923
-116 1323 -50 135 -180 396 -262 527 -149 235 -371 487 -572 649 -145 116
-348 244 -525 331 -243 120 -446 186 -726 237 l-124 22 -1532 4 -1533 3 0
-3701z"/>
<path d="M31690 16225 l0 -3695 2090 0 2090 0 0 640 0 640 -1455 0 -1455 0 0
3055 0 3055 -635 0 -635 0 0 -3695z"/>
<path d="M40381 10699 c-277 -54 -517 -241 -636 -494 -67 -140 -79 -204 -79
-390 0 -186 12 -250 79 -390 212 -452 767 -641 1229 -421 447 212 634 770 409
1221 -117 234 -354 416 -615 469 -84 17 -310 20 -387 5z m369 -213 c176 -48
331 -178 414 -348 55 -110 76 -200 76 -323 0 -119 -21 -213 -69 -310 -126
-253 -368 -398 -640 -382 -172 10 -301 68 -427 192 -155 155 -225 355 -202
583 16 166 77 291 204 418 93 94 202 155 319 179 84 17 244 13 325 -9z"/>
<path d="M55646 10694 c-162 -35 -300 -110 -429 -233 -185 -177 -277 -394
-277 -651 0 -415 281 -773 685 -871 125 -31 335 -31 447 -1 203 55 374 161
483 300 l45 57 0 323 0 322 -295 0 -295 0 0 -100 0 -100 190 0 190 0 0 -171 0
-172 -37 -45 c-75 -91 -220 -179 -351 -213 -346 -88 -724 148 -807 505 -20 86
-20 255 -1 339 53 229 231 423 449 492 214 68 448 28 620 -106 l60 -46 68 76
c38 42 69 80 69 84 0 25 -165 129 -265 168 -41 16 -106 36 -145 44 -92 19
-311 18 -404 -1z"/>
<path d="M61340 10704 c-350 -67 -631 -323 -721 -660 -31 -114 -31 -344 0
-459 116 -436 529 -715 986 -666 328 34 591 219 730 514 60 126 78 211 78 382
0 167 -17 254 -73 373 -109 233 -327 421 -572 493 -59 17 -105 22 -238 24 -91
2 -176 1 -190 -1z m345 -219 c188 -50 347 -188 435 -377 40 -84 60 -182 60
-291 0 -114 -22 -212 -72 -317 -34 -70 -57 -100 -132 -176 -74 -73 -107 -99
-176 -133 -112 -55 -207 -74 -330 -68 -173 10 -301 68 -430 197 -137 136 -199
275 -208 461 -6 135 14 232 71 349 33 69 59 102 132 176 73 75 106 99 175 133
47 23 117 48 155 56 85 18 235 13 320 -10z"/>
<path d="M31690 9810 l0 -870 680 0 680 0 0 100 0 100 -570 0 -570 0 0 315 0
315 515 0 515 0 0 100 0 100 -515 0 -515 0 0 260 0 260 550 0 550 0 0 95 0 95
-660 0 -660 0 0 -870z"/>
<path d="M34150 9810 l0 -870 110 0 110 0 2 678 3 677 79 -115 c180 -260 588
-830 595 -830 7 0 117 154 584 818 l87 124 0 -676 0 -676 110 0 110 0 0 870 0
870 -103 0 -102 0 -116 -157 c-63 -87 -218 -303 -343 -481 -165 -233 -231
-320 -240 -313 -6 6 -162 221 -346 480 l-335 470 -102 1 -103 0 0 -870z"/>
<path d="M37150 9811 l0 -871 110 0 110 0 0 219 0 220 348 3 c389 5 402 7 552
80 158 77 281 229 325 403 19 77 19 251 0 334 -26 111 -71 188 -160 277 -90
91 -141 122 -270 167 l-90 32 -462 3 -463 3 0 -870z m886 656 c182 -52 306
-188 335 -366 31 -186 -69 -385 -232 -465 -107 -52 -139 -56 -466 -56 l-303 0
0 456 0 456 308 -5 c230 -4 320 -9 358 -20z"/>
<path d="M42370 10677 c0 -3 454 -1360 540 -1614 l42 -123 106 0 107 0 197
643 c109 353 205 676 214 717 l17 75 13 -69 c7 -38 25 -105 40 -150 15 -44
105 -335 199 -646 l172 -565 114 -3 114 -3 288 863 c158 475 287 867 287 871
0 4 -50 6 -112 5 l-111 -3 -199 -595 c-109 -327 -210 -639 -223 -694 -13 -54
-26 -100 -28 -102 -5 -5 -82 254 -268 899 l-144 497 -129 -2 -129 -3 -178
-590 c-98 -324 -190 -638 -206 -697 -15 -60 -30 -108 -33 -108 -3 0 -109 315
-235 700 l-229 700 -113 0 c-62 0 -113 -1 -113 -3z"/>
<path d="M45850 9810 l0 -870 680 0 680 0 0 100 0 100 -565 0 -565 0 0 315 0
315 515 0 515 0 0 100 0 100 -515 0 -515 0 0 260 0 260 550 0 550 0 0 95 0 95
-665 0 -665 0 0 -870z"/>
<path d="M48310 9811 l0 -871 115 0 115 0 0 220 0 220 309 0 309 0 178 -220
178 -220 138 0 c76 0 138 3 138 6 0 3 -86 112 -192 242 -105 130 -195 242
-200 249 -6 8 13 23 62 49 133 70 244 208 292 364 29 95 31 260 4 360 -57 212
-220 373 -446 441 -72 22 -91 23 -537 27 l-463 3 0 -870z m894 655 c186 -52
321 -211 333 -394 16 -232 -118 -418 -344 -477 -44 -12 -123 -15 -355 -15
l-298 0 0 456 0 456 303 -5 c239 -3 314 -8 361 -21z"/>
<path d="M50900 9810 l0 -870 110 0 110 0 0 870 0 870 -110 0 -110 0 0 -870z"/>
<path d="M52330 9810 l0 -870 110 0 110 0 2 691 3 691 57 -83 c32 -46 82 -115
112 -154 30 -38 239 -312 463 -607 l408 -538 113 0 112 0 0 870 0 870 -115 0
-115 0 0 -687 0 -688 -27 45 c-32 53 -85 123 -607 808 l-399 522 -114 0 -113
0 0 -870z"/>
<path d="M58432 10313 c155 -203 312 -408 350 -456 l68 -89 0 -414 0 -414 115
0 115 0 0 415 0 415 303 393 c166 215 324 420 350 455 l48 62 -133 0 -133 0
-222 -287 c-122 -159 -245 -320 -274 -360 l-52 -72 -50 72 c-27 40 -70 99 -96
132 -26 33 -127 162 -225 288 l-178 227 -134 0 -133 0 281 -367z"/>
<path d="M63513 10078 c4 -668 2 -649 72 -788 86 -170 248 -299 444 -352 108
-29 305 -29 414 0 194 53 364 189 443 357 69 145 67 127 72 788 l3 597 -115 0
-116 0 0 -572 c0 -612 -1 -621 -51 -725 -30 -63 -140 -173 -206 -207 -197 -99
-434 -64 -587 87 -34 34 -74 85 -89 114 -54 101 -57 137 -57 746 l0 557 -116
0 -115 0 4 -602z"/>
<path d="M66140 9810 l0 -870 110 0 110 0 0 220 0 220 313 0 312 -1 174 -219
175 -220 138 0 c77 0 138 4 138 9 0 8 -76 104 -316 397 l-83 101 64 33 c128
65 242 198 293 343 34 97 42 253 18 359 -45 204 -190 371 -383 444 -131 50
-182 54 -639 54 l-424 0 0 -870z m890 655 c184 -58 302 -189 331 -365 29 -184
-70 -381 -233 -463 -104 -53 -137 -57 -465 -57 l-303 0 0 456 0 456 308 -5
c255 -4 316 -7 362 -22z"/>
<path d="M69380 9809 l0 -871 483 4 c456 4 486 6 560 26 116 32 203 79 278
149 106 100 149 204 149 358 0 146 -44 258 -137 353 -48 48 -157 112 -192 112
-8 0 9 22 38 50 33 32 64 75 84 117 29 63 32 76 32 168 0 88 -4 107 -29 162
-33 73 -116 157 -189 192 -102 49 -122 51 -614 51 l-463 0 0 -871z m935 646
c72 -36 113 -89 123 -161 16 -105 -25 -197 -108 -244 l-45 -25 -342 -3 -343
-3 0 237 0 236 328 -3 327 -4 60 -30z m17 -646 c194 -41 316 -212 279 -391
-24 -111 -118 -206 -250 -250 -62 -20 -89 -22 -413 -26 l-348 -4 0 341 0 341
340 0 c213 0 359 -4 392 -11z"/>
<path d="M71970 9811 l0 -871 115 0 115 0 0 220 0 220 310 0 309 0 176 -220
175 -220 140 0 c77 0 140 3 140 8 0 4 -77 102 -171 217 -94 116 -184 227 -200
247 l-30 37 72 37 c131 69 244 208 292 359 18 58 22 92 21 195 -1 106 -5 137
-27 205 -65 197 -219 340 -437 406 -72 22 -91 23 -537 27 l-463 3 0 -870z
m895 655 c127 -36 234 -125 293 -245 36 -73 37 -77 37 -191 0 -109 -2 -119
-32 -183 -39 -81 -126 -173 -201 -211 -101 -51 -142 -56 -464 -56 l-298 0 0
456 0 456 303 -5 c241 -3 314 -8 362 -21z"/>
<path d="M74790 9824 c-223 -470 -406 -862 -408 -870 -3 -11 17 -14 110 -14
l114 0 80 170 79 169 531 1 530 0 76 -167 76 -168 117 -3 c115 -3 117 -2 112
18 -3 11 -187 403 -409 870 l-403 849 -100 1 -101 0 -404 -856z m765 38 c98
-210 176 -385 173 -387 -3 -3 -198 -4 -435 -3 l-429 3 168 355 c92 195 189
408 215 473 l48 117 41 -87 c23 -49 121 -260 219 -471z"/>
<path d="M77240 9810 l0 -870 110 0 110 0 1 688 c0 649 1 686 17 662 28 -41
308 -411 676 -893 l349 -457 108 0 109 0 0 870 0 870 -110 0 -110 0 0 -687 0
-687 -43 64 c-23 36 -92 128 -152 205 -61 77 -274 358 -475 623 l-365 482
-112 0 -113 0 0 -870z"/>
<path d="M79930 9810 l0 -870 353 0 c480 0 570 12 752 100 225 108 386 310
446 555 30 125 31 314 1 437 -80 329 -334 568 -671 632 -67 13 -160 16 -482
16 l-399 0 0 -870z m722 670 c59 -6 135 -19 170 -30 187 -58 351 -222 415
-414 24 -72 27 -96 27 -221 0 -128 -2 -147 -28 -220 -69 -200 -211 -344 -403
-410 -102 -35 -200 -45 -454 -45 l-229 0 0 675 0 675 198 0 c108 0 245 -5 304
-10z"/>
</g>
</svg>
